{"title":"Little People Big World S12E08 720p H264-AC3 {inyd}","uid":9413125,"size":1656393562,"categoryP":"video","categoryS":"hd___tv_shows","magnet":"?xt=urn:btih:7aa0482295682a0bfe79f7c495628ab63c3cedb7&amp;dn=Little+People+Big+World+S12E08+720p+H264-AC3+%7Binyd%7D&amp;tr=udp%3A%2F%2Ftracker.openbittorrent.com%3A80&amp;tr=udp%3A%2F%2Fopen.demonii.com%3A1337&amp;tr=udp%3A%2F%2Ftracker.coppersurfer.tk%3A6969&amp;tr=udp%3A%2F%2Fexodus.desync.com%3A6969","seeders":1,"leechers":3,"uploader":"imPROvise","files":-1,"time":1388358395,"description":"General\nTV Show                                  : Little People Big World\nSeason                                   : 12\nEpisode                                  : 08 - Crossroads for the Roloffs\nAir Date                                 : Tuesday, Dec. 17, 2013\nFormat                                   : Matroska\nFormat version                           : Version 1\nFile size                                : 1.54 GiB\nDuration                                 : 42mn 38s\nOverall bit rate                         : 5 180 Kbps\nWriting library                          : WonderShare Matroska Muxer\n\nVideo\nID                                       : 1\nFormat                                   : AVC\nFormat/Info                              : Advanced Video Codec\nFormat profile                           : &lt;a class=&quot;__cf_email__&quot; href=&quot;/cdn-cgi/l/email-protection&quot; data-cfemail=&quot;17557664727b7e7972575b243927&quot;&gt;[email&amp;#160;protected]&lt;/a&gt;&lt;script cf-hash='f9e31' type=&quot;text/javascript&quot;&gt;\n/* &lt;![CDATA[ */!function(){try{var t=&quot;currentScript&quot;in document?document.currentScript:function(){for(var t=document.getElementsByTagName(&quot;script&quot;),e=t.length;e--;)if(t[e].getAttribute(&quot;cf-hash&quot;))return t[e]}();if(t&amp;&amp;t.previousSibling){var e,r,n,i,c=t.previousSibling,a=c.getAttribute(&quot;data-cfemail&quot;);if(a){for(e=&quot;&quot;,r=parseInt(a.substr(0,2),16),n=2;a.length-n;n+=2)i=parseInt(a.substr(n,2),16)^r,e+=String.fromCharCode(i);e=document.createTextNode(e),c.parentNode.replaceChild(e,c)}}}catch(u){}}();/* ]]&gt; */&lt;/script&gt;\nFormat settings, CABAC                   : No\nFormat settings, ReFrames                : 1 frame\nFormat settings, GOP                     : M=1, N=25\nCodec ID                                 : V_MS/VFW/FOURCC / X264\nCodec ID/Info                            : XiWave GNU GPL x264 MPEG-4\nDuration                                 : 42mn 38s\nBit rate                                 : 4 885 Kbps\nWidth                                    : 1 280 pixels\nHeight                                   : 720 pixels\nDisplay aspect ratio                     : 16:9\nFrame rate mode                          : Constant\nFrame rate                               : 24.000 fps\nColor space                              : YUV\nChroma subsampling                       : 4:2:0\nBit depth                                : 8 bits\nScan type                                : Progressive\nBits/(Pixel*Frame)                       : 0.221\nStream size                              : 1.45 GiB (94%)\nDefault                                  : Yes\nForced                                   : No\n\nAudio\nID                                       : 2\nFormat                                   : AC-3\nFormat/Info                              : Audio Coding 3\nMode extension                           : CM (complete main)\nFormat settings, Endianness              : Big\nCodec ID                                 : A_AC3\nDuration                                 : 42mn 38s\nBit rate mode                            : Constant\nBit rate                                 : 192 Kbps\nChannel(s)                               : 2 channels\nChannel positions                        : Front: L R\nSampling rate                            : 48.0 KHz\nBit depth                                : 16 bits\nCompression mode                         : Lossy\nStream size                              : 58.6 MiB (4%)\nDefault                                  : Yes\nForced                                   : No\n\nPlease help seed as much as possible!!! - inotyourdaddy {inyd}","torrent":{"xt":"urn:btih:7aa0482295682a0bfe79f7c495628ab63c3cedb7","amp;dn":"Little+People+Big+World+S12E08+720p+H264-AC3+%7Binyd%7D","amp;tr":["udp%3A%2F%2Ftracker.openbittorrent.com%3A80","udp%3A%2F%2Fopen.demonii.com%3A1337","udp%3A%2F%2Ftracker.coppersurfer.tk%3A6969","udp%3A%2F%2Fexodus.desync.com%3A6969"],"infoHash":"7aa0482295682a0bfe79f7c495628ab63c3cedb7","infoHashBuffer":{"type":"Buffer","data":[122,160,72,34,149,104,42,11,254,121,247,196,149,98,138,182,60,60,237,183]},"announce":[],"urlList":[]}}